<?xml version="1.0" encoding="utf-8"?>
<!-- Generator: Adobe Illustrator 20.1.0, SVG Export Plug-In . SVG Version: 6.00 Build 0)  -->
<svg version="1.1" id="Layer_1" xmlns="http://www.w3.org/2000/svg" xmlns:xlink="http://www.w3.org/1999/xlink" x="0px" y="0px"
	 viewBox="0 0 1008 288" style="enable-background:new 0 0 1008 288;" xml:space="preserve">
<style type="text/css">
	.st0{fill:#D3B433;}
</style>
<title>squishy_logos_final</title>
<rect x="-701.8" y="221.9" transform="matrix(0.8877 -0.4604 0.4604 0.8877 -170.3198 -252.7219)" width="197.1" height="1.8"/>
<rect x="-646.6" y="164.1" transform="matrix(0.8384 -0.5451 0.5451 0.8384 -238.7558 -312.1037)" width="1.8" height="165"/>
<rect x="-639.4" y="245.7" transform="matrix(0.5237 -0.8519 0.8519 0.5237 -475.9312 -358.1042)" width="162.4" height="1.8"/>
<rect x="-726.8" y="199.8" transform="matrix(0.5547 -0.8321 0.8321 0.5547 -454.5651 -447.914)" width="162.2" height="1.8"/>
<rect x="-559.1" y="121.2" transform="matrix(0.8536 -0.5209 0.5209 0.8536 -187.3822 -261.0748)" width="1.8" height="163.4"/>
<rect x="-516.6" y="177.4" width="1.8" height="95.2"/>
<rect x="-691.6" y="177.4" width="1.8" height="90.8"/>
<path class="st0" d="M-600.8,319.3c-0.6,0-1.2-0.1-1.7-0.4l-89.9-47.6c-1.7-1-2.3-3.1-1.3-4.9c0.9-1.6,3-2.3,4.7-1.4l88.3,46.7
	l81.5-41.3v-26.9L-691.3,213c-1.7-0.3-2.9-1.8-2.9-3.5v-32.1c0-1.4,0.8-2.6,2-3.2l89.9-44.3c1-0.5,2.2-0.5,3.2,0l85.1,44.3
	c1.8,0.9,2.4,3.1,1.5,4.8c-0.9,1.8-3.1,2.4-4.8,1.5l-83.5-43.4l-86.3,42.5v26.9l172,30.5c1.7,0.3,2.9,1.8,2.9,3.5v32
	c0,1.4-0.8,2.6-2,3.2l-85.1,43.2C-599.7,319.2-600.2,319.3-600.8,319.3z"/>
<path d="M-465.1,208.6c-2.6-0.9-5-2.4-6.9-4.4l1.5-2.4c1.8,1.8,3.9,3.1,6.3,4c2.7,1,5.5,1.6,8.4,1.6c4.2,0,7.4-0.8,9.6-2.4
	c2.1-1.4,3.3-3.8,3.2-6.3c0.1-1.8-0.5-3.5-1.7-4.8c-1.2-1.2-2.6-2.2-4.2-2.7c-2.2-0.8-4.5-1.5-6.9-2c-2.7-0.6-5.3-1.4-7.8-2.4
	c-1.9-0.7-3.7-2-5-3.5c-1.4-1.8-2.2-4.1-2.1-6.4c0-2.1,0.6-4.2,1.7-5.9c1.3-1.9,3.1-3.4,5.2-4.3c2.8-1.1,5.8-1.7,8.8-1.6
	c2.5,0,4.9,0.4,7.2,1.1c2.2,0.6,4.3,1.6,6.2,2.9l-1.2,2.6c-1.8-1.2-3.8-2.2-5.9-2.8c-2-0.6-4.2-1-6.3-1c-4.1,0-7.2,0.8-9.3,2.5
	c-2,1.5-3.2,3.9-3.2,6.4c-0.1,1.8,0.5,3.5,1.7,4.8c1.2,1.2,2.6,2.2,4.2,2.7c2.3,0.8,4.6,1.5,6.9,2c2.7,0.6,5.3,1.4,7.8,2.3
	c1.9,0.7,3.6,1.9,5,3.5c1.4,1.8,2.2,4,2.1,6.2c0,2.1-0.6,4.2-1.8,5.9c-1.3,1.9-3.2,3.4-5.4,4.2c-2.8,1.1-5.8,1.7-8.9,1.6
	C-458.9,210.2-462.1,209.7-465.1,208.6z"/>
<path d="M-384.9,213.4c-1.2,1.6-2.8,2.9-4.6,3.8c-1.8,0.9-3.8,1.3-5.8,1.3c-2.5,0-5-0.7-7.1-1.9c-2.8-1.7-5.4-3.8-7.6-6.2
	c-4.1,0-8.2-1-11.8-3c-3.4-1.9-6.3-4.7-8.2-8.1c-4-7.1-4-15.9,0-23c2-3.4,4.8-6.2,8.3-8.1c7.4-3.9,16.2-3.9,23.6,0
	c3.4,1.9,6.3,4.7,8.3,8.1c3.8,6.8,4,15,0.6,22c-1.6,3.1-3.9,5.8-6.8,7.8c-2.9,2.1-6.3,3.5-9.8,4c3.6,3.8,7.2,5.7,10.5,5.7
	c3.4,0,6.6-1.6,8.8-4.2L-384.9,213.4z M-427.2,197.7c1.7,2.9,4.2,5.4,7.1,7c6.3,3.4,13.9,3.4,20.2,0c3-1.7,5.4-4.1,7.1-7
	c3.5-6.2,3.5-13.7,0-19.9c-1.7-2.9-4.2-5.3-7.1-7c-6.3-3.4-13.9-3.4-20.2,0c-3,1.6-5.4,4.1-7.1,7
	C-430.7,184-430.7,191.5-427.2,197.7z"/>
<path d="M-371.3,205.4c-3.1-3.3-4.7-8-4.7-14.3v-25.6h3.2V191c0,5.5,1.3,9.5,3.8,12.2s6.1,4.1,10.9,4.1c4.7,0,8.3-1.4,10.8-4.1
	c2.5-2.7,3.8-6.8,3.8-12.2v-25.4h3.2v25.6c0,6.3-1.6,11-4.7,14.3s-7.5,4.9-13.1,4.9C-363.9,210.3-368.2,208.7-371.3,205.4z"/>
<path d="M-325.3,165.6h3.2V210h-3.2V165.6z"/>
<path d="M-304.2,208.6c-2.6-0.9-5-2.4-6.9-4.4l1.5-2.4c1.8,1.8,3.9,3.1,6.3,4c2.7,1,5.5,1.6,8.3,1.6c4.2,0,7.4-0.8,9.6-2.4
	c2.1-1.4,3.3-3.8,3.2-6.3c0.1-1.8-0.5-3.5-1.7-4.8c-1.2-1.2-2.6-2.2-4.2-2.7c-2.2-0.8-4.5-1.5-6.8-2c-2.7-0.6-5.3-1.4-7.8-2.4
	c-1.9-0.7-3.7-2-5-3.5c-1.4-1.8-2.2-4.1-2.1-6.4c0-2.1,0.6-4.2,1.7-5.9c1.3-1.9,3.1-3.4,5.2-4.2c2.8-1.1,5.8-1.7,8.8-1.6
	c2.5,0,4.9,0.4,7.2,1.1c2.2,0.6,4.3,1.6,6.2,2.9l-1.2,2.6c-1.8-1.2-3.8-2.2-5.9-2.8c-2-0.6-4.2-1-6.3-1c-4.1,0-7.2,0.8-9.3,2.5
	c-2,1.5-3.2,3.9-3.2,6.4c-0.1,1.8,0.5,3.5,1.7,4.8c1.2,1.2,2.6,2.2,4.2,2.7c2.3,0.8,4.6,1.5,6.9,2c2.7,0.6,5.3,1.4,7.8,2.3
	c1.9,0.7,3.6,1.9,5,3.5c1.4,1.8,2.2,4,2.1,6.2c0,2.1-0.6,4.2-1.8,5.9c-1.3,1.9-3.2,3.4-5.4,4.2c-2.8,1.1-5.8,1.7-8.9,1.6
	C-298.1,210.3-301.2,209.7-304.2,208.6z"/>
<path d="M-231.7,165.6V210h-3.2v-21.2h-29.7V210h-3.3v-44.4h3.2V186h29.8v-20.4H-231.7z"/>
<path d="M-202.5,194.7V210h-3.2v-15.3l-17.9-29.1h3.5l16.1,26.1l16.1-26.1h3.4L-202.5,194.7z"/>
<path d="M-436.6,284.8l-10.6-14.9c-1.4,0.2-2.9,0.3-4.3,0.3h-12.7v14.5h-3.2v-44.4h15.9c5.6,0,10,1.3,13.1,4c3.2,2.7,4.8,6.3,4.8,11
	c0.3,6.5-4,12.4-10.4,13.9l11.1,15.5h-3.7V284.8z M-451.6,267.4c4.7,0,8.4-1,10.9-3.1s3.7-5.1,3.8-8.9c0-3.9-1.2-6.8-3.8-8.9
	c-2.5-2.1-6.1-3.1-10.9-3.1h-12.7v24.1h12.7V267.4z"/>
<path d="M-414.7,282.1c-3.4-1.9-6.3-4.7-8.3-8.1c-4-7.1-4-15.9,0-23c2-3.4,4.8-6.2,8.3-8.1c7.4-3.9,16.2-3.9,23.6,0
	c3.4,1.9,6.3,4.7,8.3,8.1c4,7.2,4,15.9,0,23.1c-2,3.4-4.8,6.2-8.3,8.1C-398.5,286.1-407.3,286.1-414.7,282.1L-414.7,282.1z
	 M-392.8,279.6c3-1.6,5.4-4.1,7.1-7c3.5-6.2,3.5-13.8,0-20c-1.7-2.9-4.1-5.4-7.1-7c-6.3-3.4-13.9-3.4-20.2,0c-3,1.6-5.4,4.1-7.1,7
	c-3.5,6.2-3.5,13.8,0,20c1.7,2.9,4.2,5.4,7.1,7C-406.7,283-399.1,283-392.8,279.6z"/>
<path d="M-334.9,265.6c1.7,2.1,2.6,4.7,2.5,7.4c0.2,3.4-1.4,6.7-4.1,8.7c-2.8,2-6.8,3-12.2,3h-19.8v-44.3h18.5c4.8,0,8.6,1,11.3,3
	c2.7,2,4.2,5.1,4,8.4c0.1,2.3-0.6,4.6-2,6.4c-1.4,1.8-3.3,3.1-5.4,3.8C-339.4,262.3-336.9,263.6-334.9,265.6z M-365.3,243.1v17.7
	h15.2c3.9,0,6.9-0.8,9-2.2c3.6-3,4.2-8.3,1.2-12c-0.4-0.5-0.8-0.9-1.2-1.2c-2.1-1.5-5.1-2.2-9-2.2L-365.3,243.1z M-338.9,279.7
	c2.2-1.5,3.3-3.8,3.3-7s-1.1-5.5-3.3-6.9c-2.2-1.5-5.5-2.2-9.8-2.2h-16.6V282h16.6C-344.5,282-341.2,281.2-338.9,279.7z"/>
<path d="M-313.8,282.1c-3.4-1.9-6.3-4.7-8.3-8.1c-4-7.1-4-15.9,0-23c2-3.4,4.8-6.2,8.3-8.1c7.4-3.9,16.2-3.9,23.6,0
	c3.4,1.9,6.3,4.7,8.3,8.1c4,7.2,4,15.9,0,23.1c-2,3.4-4.8,6.2-8.3,8.1C-297.6,286.1-306.4,286.1-313.8,282.1L-313.8,282.1z
	 M-291.9,279.6c3-1.6,5.4-4.1,7.1-7c3.5-6.2,3.5-13.8,0-20c-1.7-2.9-4.1-5.4-7.1-7c-6.3-3.4-13.9-3.4-20.2,0c-3,1.6-5.4,4.1-7.1,7
	c-3.5,6.2-3.5,13.8,0,20c1.7,2.9,4.2,5.4,7.1,7C-305.8,283-298.3,283-291.9,279.6z"/>
<path d="M-259.8,243.3h-16v-2.9h35.2v2.9h-16v41.5h-3.2V243.3z"/>
<path d="M-232.5,240.3h3.2v44.4h-3.2V240.3z"/>
<path d="M-206.8,282.2c-3.4-1.9-6.3-4.7-8.2-8.1c-4-7.2-4-15.9,0-23.1c2-3.4,4.8-6.2,8.2-8.1c3.6-2,7.7-3,11.8-2.9
	c3,0,6,0.5,8.9,1.6c2.6,1,5,2.6,6.9,4.6l-2,2.1c-3.7-3.6-8.6-5.5-13.7-5.3c-3.5,0-7,0.8-10.1,2.6c-3,1.6-5.5,4.1-7.2,7
	c-3.5,6.2-3.5,13.8,0,20c1.7,2.9,4.2,5.4,7.2,7c3.1,1.7,6.6,2.6,10.1,2.5c5.1,0.2,10-1.8,13.7-5.3l2,2.1c-1.9,2.1-4.3,3.6-7,4.6
	c-2.8,1.1-5.8,1.6-8.8,1.6C-199.2,285.1-203.2,284.1-206.8,282.2z"/>
<path d="M-166.2,283.4c-2.6-0.9-5-2.4-6.9-4.4l1.5-2.4c1.8,1.8,3.9,3.1,6.3,4c2.7,1,5.5,1.6,8.3,1.5c4.2,0,7.4-0.8,9.6-2.4
	c2.1-1.4,3.3-3.8,3.2-6.3c0.1-1.8-0.5-3.5-1.7-4.8c-1.2-1.2-2.6-2.2-4.2-2.7c-2.2-0.8-4.5-1.5-6.8-2c-2.7-0.6-5.3-1.4-7.8-2.4
	c-1.9-0.7-3.7-2-5-3.5c-1.4-1.8-2.2-4.1-2.1-6.4c0-2.1,0.6-4.2,1.7-5.9c1.3-1.9,3.1-3.4,5.2-4.3c2.8-1.1,5.8-1.7,8.8-1.6
	c2.5,0,4.9,0.4,7.2,1.1c2.2,0.6,4.3,1.6,6.2,2.9l-1.2,2.6c-1.8-1.2-3.8-2.2-5.9-2.8c-2-0.6-4.2-1-6.3-1c-4.1,0-7.2,0.8-9.3,2.5
	c-2,1.5-3.2,3.9-3.2,6.4c-0.1,1.8,0.5,3.6,1.7,4.9c1.2,1.2,2.6,2.2,4.2,2.7c2.3,0.8,4.6,1.5,6.9,2c2.7,0.6,5.3,1.4,7.8,2.4
	c1.9,0.7,3.6,1.9,5,3.5c1.4,1.8,2.2,4,2.1,6.2c0,2.1-0.6,4.2-1.8,5.9c-1.3,1.9-3.2,3.4-5.4,4.2c-2.8,1.1-5.8,1.7-8.9,1.6
	C-160.1,285.1-163.3,284.5-166.2,283.4z"/>
<g id="_x36_4uE73.tif">
	
		<image style="overflow:visible;enable-background:new    ;" width="987" height="417" id="Layer_0_1_" xlink:href="C6F00378A6E33221.png"  transform="matrix(0.5848 0 0 0.5848 -724.5547 412.1015)">
	</image>
</g>
<rect x="85.1" y="141.5" transform="matrix(0.8877 -0.4604 0.4604 0.8877 -49.0699 82.8677)" width="120.6" height="1.1"/>
<rect x="118.8" y="106.1" transform="matrix(0.8384 -0.5451 0.5451 0.8384 -66.0442 90.385)" width="1.1" height="100.9"/>
<rect x="123.2" y="156" transform="matrix(0.5237 -0.8519 0.8519 0.5237 -51.0294 221.8622)" width="99.3" height="1.1"/>
<rect x="69.8" y="128" transform="matrix(0.5547 -0.8321 0.8321 0.5547 -53.7785 156.5499)" width="99.2" height="1.1"/>
<rect x="172.4" y="79.9" transform="matrix(0.8536 -0.5209 0.5209 0.8536 -42.3175 109.0731)" width="1.1" height="99.9"/>
<rect x="198.3" y="114.3" width="1.1" height="58.2"/>
<rect x="91.3" y="114.3" width="1.1" height="55.5"/>
<path class="st0" d="M146.8,201.1c-0.4,0-0.7-0.1-1-0.2l-55-29.1c-1-0.6-1.4-1.9-0.8-3c0.6-1,1.8-1.4,2.9-0.9l54,28.6l49.8-25.3
	v-16.5L91.5,136c-1-0.2-1.8-1.1-1.8-2.1v-19.6c0-0.9,0.5-1.6,1.2-2l55-27.1c0.6-0.3,1.3-0.3,2,0l52.1,27.1c1.1,0.6,1.5,1.9,0.9,2.9
	c-0.6,1.1-1.9,1.5-2.9,0.9l-51.1-26.5l-52.8,26v16.5l105.2,18.7c1,0.2,1.8,1.1,1.8,2.1v19.6c0,0.9-0.5,1.6-1.2,2l-52.1,26.4
	C147.5,201,147.2,201.1,146.8,201.1z"/>
<path d="M229.8,133.3c-1.6-0.6-3.1-1.5-4.2-2.7l0.9-1.5c1.1,1.1,2.4,1.9,3.9,2.4c1.7,0.6,3.4,1,5.1,1c2.6,0,4.5-0.5,5.9-1.5
	c1.3-0.9,2-2.3,2-3.9c0.1-1.1-0.3-2.1-1-2.9c-0.7-0.7-1.6-1.3-2.6-1.7c-1.3-0.5-2.8-0.9-4.2-1.2c-1.7-0.4-3.2-0.9-4.8-1.5
	c-1.2-0.4-2.3-1.2-3.1-2.1c-0.9-1.1-1.3-2.5-1.3-3.9c0-1.3,0.4-2.6,1-3.6c0.8-1.2,1.9-2.1,3.2-2.6c1.7-0.7,3.5-1,5.4-1
	c1.5,0,3,0.2,4.4,0.7c1.3,0.4,2.6,1,3.8,1.8l-0.7,1.6c-1.1-0.7-2.3-1.3-3.6-1.7c-1.2-0.4-2.6-0.6-3.9-0.6c-2.5,0-4.4,0.5-5.7,1.5
	c-1.2,0.9-2,2.4-2,3.9c-0.1,1.1,0.3,2.1,1,2.9c0.7,0.7,1.6,1.3,2.6,1.7c1.4,0.5,2.8,0.9,4.2,1.2c1.7,0.4,3.2,0.9,4.8,1.4
	c1.2,0.4,2.2,1.2,3.1,2.1c0.9,1.1,1.3,2.4,1.3,3.8c0,1.3-0.4,2.6-1.1,3.6c-0.8,1.2-2,2.1-3.3,2.6c-1.7,0.7-3.5,1-5.4,1
	C233.6,134.3,231.7,134,229.8,133.3z"/>
<path d="M278.9,136.3c-0.7,1-1.7,1.8-2.8,2.3c-1.1,0.6-2.3,0.8-3.5,0.8c-1.5,0-3.1-0.4-4.3-1.2c-1.7-1-3.3-2.3-4.6-3.8
	c-2.5,0-5-0.6-7.2-1.8c-2.1-1.2-3.9-2.9-5-5c-2.4-4.3-2.4-9.7,0-14.1c1.2-2.1,2.9-3.8,5.1-5c4.5-2.4,9.9-2.4,14.4,0
	c2.1,1.2,3.9,2.9,5.1,5c2.3,4.2,2.4,9.2,0.4,13.5c-1,1.9-2.4,3.5-4.2,4.8c-1.8,1.3-3.9,2.1-6,2.4c2.2,2.3,4.4,3.5,6.4,3.5
	c2.1,0,4-1,5.4-2.6L278.9,136.3z M253,126.7c1,1.8,2.6,3.3,4.3,4.3c3.9,2.1,8.5,2.1,12.4,0c1.8-1,3.3-2.5,4.3-4.3
	c2.1-3.8,2.1-8.4,0-12.2c-1-1.8-2.6-3.2-4.3-4.3c-3.9-2.1-8.5-2.1-12.4,0c-1.8,1-3.3,2.5-4.3,4.3C250.9,118.3,250.9,122.9,253,126.7
	z"/>
<path d="M287.2,131.4c-1.9-2-2.9-4.9-2.9-8.7V107h2v15.6c0,3.4,0.8,5.8,2.3,7.5s3.7,2.5,6.7,2.5c2.9,0,5.1-0.9,6.6-2.5
	c1.5-1.7,2.3-4.2,2.3-7.5V107h2v15.7c0,3.9-1,6.7-2.9,8.7c-1.9,2-4.6,3-8,3C291.7,134.4,289.1,133.4,287.2,131.4z"/>
<path d="M315.4,107h2v27.2h-2V107z"/>
<path d="M328.3,133.3c-1.6-0.6-3.1-1.5-4.2-2.7l0.9-1.5c1.1,1.1,2.4,1.9,3.9,2.4c1.7,0.6,3.4,1,5.1,1c2.6,0,4.5-0.5,5.9-1.5
	c1.3-0.9,2-2.3,2-3.9c0.1-1.1-0.3-2.1-1-2.9c-0.7-0.7-1.6-1.3-2.6-1.7c-1.3-0.5-2.8-0.9-4.2-1.2c-1.7-0.4-3.2-0.9-4.8-1.5
	c-1.2-0.4-2.3-1.2-3.1-2.1c-0.9-1.1-1.3-2.5-1.3-3.9c0-1.3,0.4-2.6,1-3.6c0.8-1.2,1.9-2.1,3.2-2.6c1.7-0.7,3.5-1,5.4-1
	c1.5,0,3,0.2,4.4,0.7c1.3,0.4,2.6,1,3.8,1.8l-0.7,1.6c-1.1-0.7-2.3-1.3-3.6-1.7c-1.2-0.4-2.6-0.6-3.9-0.6c-2.5,0-4.4,0.5-5.7,1.5
	c-1.2,0.9-2,2.4-2,3.9c-0.1,1.1,0.3,2.1,1,2.9c0.7,0.7,1.6,1.3,2.6,1.7c1.4,0.5,2.8,0.9,4.2,1.2c1.7,0.4,3.2,0.9,4.8,1.4
	c1.2,0.4,2.2,1.2,3.1,2.1c0.9,1.1,1.3,2.4,1.3,3.8c0,1.3-0.4,2.6-1.1,3.6c-0.8,1.2-2,2.1-3.3,2.6c-1.7,0.7-3.5,1-5.4,1
	C332,134.4,330.1,134,328.3,133.3z"/>
<path d="M372.6,107v27.2h-2v-13h-18.2v13h-2V107h2v12.5h18.2V107H372.6z"/>
<path d="M390.5,124.8v9.4h-2v-9.4L377.6,107h2.1l9.8,16l9.8-16h2.1L390.5,124.8z"/>
<path d="M247.3,179.9l-6.5-9.1c-0.9,0.1-1.8,0.2-2.6,0.2h-7.8v8.9h-2v-27.2h9.7c3.4,0,6.1,0.8,8,2.4c2,1.7,2.9,3.9,2.9,6.7
	c0.2,4-2.4,7.6-6.4,8.5l6.8,9.5L247.3,179.9L247.3,179.9z M238.1,169.3c2.9,0,5.1-0.6,6.7-1.9s2.3-3.1,2.3-5.4
	c0-2.4-0.7-4.2-2.3-5.4c-1.5-1.3-3.7-1.9-6.7-1.9h-7.8v14.7L238.1,169.3L238.1,169.3z"/>
<path d="M260.7,178.3c-2.1-1.2-3.9-2.9-5.1-5c-2.4-4.3-2.4-9.7,0-14.1c1.2-2.1,2.9-3.8,5.1-5c4.5-2.4,9.9-2.4,14.4,0
	c2.1,1.2,3.9,2.9,5.1,5c2.4,4.4,2.4,9.7,0,14.1c-1.2,2.1-2.9,3.8-5.1,5C270.6,180.7,265.2,180.7,260.7,178.3L260.7,178.3z
	 M274.1,176.8c1.8-1,3.3-2.5,4.3-4.3c2.1-3.8,2.1-8.4,0-12.2c-1-1.8-2.5-3.3-4.3-4.3c-3.9-2.1-8.5-2.1-12.4,0
	c-1.8,1-3.3,2.5-4.3,4.3c-2.1,3.8-2.1,8.4,0,12.2c1,1.8,2.6,3.3,4.3,4.3C265.6,178.8,270.2,178.8,274.1,176.8z"/>
<path d="M309.5,168.2c1,1.3,1.6,2.9,1.5,4.5c0.1,2.1-0.9,4.1-2.5,5.3c-1.7,1.2-4.2,1.8-7.5,1.8h-12.1v-27.1h11.3
	c2.9,0,5.3,0.6,6.9,1.8c1.7,1.2,2.6,3.1,2.4,5.1c0.1,1.4-0.4,2.8-1.2,3.9c-0.9,1.1-2,1.9-3.3,2.3C306.7,166.2,308.3,167,309.5,168.2
	z M290.9,154.4v10.8h9.3c2.4,0,4.2-0.5,5.5-1.3c2.2-1.8,2.6-5.1,0.7-7.3c-0.2-0.3-0.5-0.6-0.7-0.7c-1.3-0.9-3.1-1.3-5.5-1.3
	L290.9,154.4z M307,176.8c1.3-0.9,2-2.3,2-4.3s-0.7-3.4-2-4.2c-1.3-0.9-3.4-1.3-6-1.3h-10.2v11.3H301
	C303.6,178.2,305.6,177.7,307,176.8z"/>
<path d="M322.4,178.3c-2.1-1.2-3.9-2.9-5.1-5c-2.4-4.3-2.4-9.7,0-14.1c1.2-2.1,2.9-3.8,5.1-5c4.5-2.4,9.9-2.4,14.4,0
	c2.1,1.2,3.9,2.9,5.1,5c2.4,4.4,2.4,9.7,0,14.1c-1.2,2.1-2.9,3.8-5.1,5C332.3,180.7,326.9,180.7,322.4,178.3L322.4,178.3z
	 M335.8,176.8c1.8-1,3.3-2.5,4.3-4.3c2.1-3.8,2.1-8.4,0-12.2c-1-1.8-2.5-3.3-4.3-4.3c-3.9-2.1-8.5-2.1-12.4,0
	c-1.8,1-3.3,2.5-4.3,4.3c-2.1,3.8-2.1,8.4,0,12.2c1,1.8,2.6,3.3,4.3,4.3C327.3,178.8,331.9,178.8,335.8,176.8z"/>
<path d="M355.4,154.6h-9.8v-1.8h21.5v1.8h-9.8v25.4h-2V154.6z"/>
<path d="M372.1,152.7h2v27.2h-2V152.7z"/>
<path d="M387.8,178.4c-2.1-1.2-3.9-2.9-5-5c-2.4-4.4-2.4-9.7,0-14.1c1.2-2.1,2.9-3.8,5-5c2.2-1.2,4.7-1.8,7.2-1.8
	c1.8,0,3.7,0.3,5.4,1c1.6,0.6,3.1,1.6,4.2,2.8l-1.2,1.3c-2.3-2.2-5.3-3.4-8.4-3.2c-2.1,0-4.3,0.5-6.2,1.6c-1.8,1-3.4,2.5-4.4,4.3
	c-2.1,3.8-2.1,8.4,0,12.2c1,1.8,2.6,3.3,4.4,4.3c1.9,1,4,1.6,6.2,1.5c3.1,0.1,6.1-1.1,8.4-3.2l1.2,1.3c-1.2,1.3-2.6,2.2-4.3,2.8
	c-1.7,0.7-3.5,1-5.4,1C392.5,180.1,390,179.5,387.8,178.4z"/>
<path d="M412.7,179.1c-1.6-0.6-3.1-1.5-4.2-2.7l0.9-1.5c1.1,1.1,2.4,1.9,3.9,2.4c1.7,0.6,3.4,1,5.1,0.9c2.6,0,4.5-0.5,5.9-1.5
	c1.3-0.9,2-2.3,2-3.9c0.1-1.1-0.3-2.1-1-2.9c-0.7-0.7-1.6-1.3-2.6-1.7c-1.3-0.5-2.8-0.9-4.2-1.2c-1.7-0.4-3.2-0.9-4.8-1.5
	c-1.2-0.4-2.3-1.2-3.1-2.1c-0.9-1.1-1.3-2.5-1.3-3.9c0-1.3,0.4-2.6,1-3.6c0.8-1.2,1.9-2.1,3.2-2.6c1.7-0.7,3.5-1,5.4-1
	c1.5,0,3,0.2,4.4,0.7c1.3,0.4,2.6,1,3.8,1.8l-0.7,1.6c-1.1-0.7-2.3-1.3-3.6-1.7c-1.2-0.4-2.6-0.6-3.9-0.6c-2.5,0-4.4,0.5-5.7,1.5
	c-1.2,0.9-2,2.4-2,3.9c-0.1,1.1,0.3,2.2,1,3c0.7,0.7,1.6,1.3,2.6,1.7c1.4,0.5,2.8,0.9,4.2,1.2c1.7,0.4,3.2,0.9,4.8,1.5
	c1.2,0.4,2.2,1.2,3.1,2.1c0.9,1.1,1.3,2.4,1.3,3.8c0,1.3-0.4,2.6-1.1,3.6c-0.8,1.2-2,2.1-3.3,2.6c-1.7,0.7-3.5,1-5.4,1
	C416.4,180.1,414.4,179.8,412.7,179.1z"/>
<g id="_x36_4uE73.tif_1_">
	
		<image style="overflow:visible;enable-background:new    ;" width="987" height="417" id="Layer_0_2_" xlink:href="C6F00378A6E33221.png"  transform="matrix(0.3653 0 0 0.3653 560.1511 68.8691)">
	</image>
</g>
</svg>
