<?xml version="1.0" encoding="utf-8"?>
<!-- Generator: Adobe Illustrator 20.1.0, SVG Export Plug-In . SVG Version: 6.00 Build 0)  -->
<svg version="1.1" id="Layer_1" xmlns="http://www.w3.org/2000/svg" xmlns:xlink="http://www.w3.org/1999/xlink" x="0px" y="0px"
	 viewBox="0 0 300 300" style="enable-background:new 0 0 300 300;" xml:space="preserve">
<style type="text/css">
	.st0{fill:#D3B433;}
</style>
<title>squishy_logos_final</title>
<rect x="51.4" y="146.4" transform="matrix(0.8877 -0.4604 0.4604 0.8877 -50.9516 85.5799)" width="197.1" height="1.8"/>
<rect x="106.6" y="88.5" transform="matrix(0.8384 -0.5451 0.5451 0.8384 -75.8455 86.2028)" width="1.8" height="165"/>
<rect x="113.8" y="170.1" transform="matrix(0.5237 -0.8519 0.8519 0.5237 -52.842 247.5506)" width="162.4" height="1.8"/>
<rect x="26.3" y="124.2" transform="matrix(0.5547 -0.8321 0.8321 0.5547 -56.2392 145.101)" width="162.2" height="1.8"/>
<rect x="194.1" y="45.6" transform="matrix(0.8536 -0.5209 0.5209 0.8536 -37.7795 120.1773)" width="1.8" height="163.4"/>
<rect x="236.6" y="101.8" width="1.8" height="95.2"/>
<rect x="61.6" y="101.8" width="1.8" height="90.8"/>
<path class="st0" d="M152.4,243.8c-0.6,0-1.2-0.1-1.7-0.4l-89.9-47.6c-1.7-1-2.3-3.1-1.3-4.9c0.9-1.6,3-2.3,4.7-1.4l88.3,46.7
	l81.5-41.3v-26.9L61.9,137.5c-1.7-0.3-2.9-1.8-2.9-3.5v-32.1c0-1.4,0.8-2.6,2-3.2l89.9-44.3c1-0.5,2.2-0.5,3.2,0l85.1,44.3
	c1.8,0.9,2.4,3.1,1.5,4.8c-0.9,1.8-3.1,2.4-4.8,1.5l-83.5-43.4L66,104.1V131l172.1,30.5c1.7,0.3,2.9,1.8,2.9,3.5v32
	c0,1.4-0.8,2.6-2,3.2L154,243.3C153.5,243.6,153,243.7,152.4,243.8z"/>
</svg>
